<?xml version="1.0" encoding="utf-8"?>
<svg xmlns="http://www.w3.org/2000/svg" version="1.1" viewBox="0 0 880 220" style="background:white">
  <g>
    <g>
      <g>
        <path d="M184.133,139.08l-22.561-32.241v32.241h-13.761v-53.361h14.16l21.601,30.721v-30.721h13.841v53.361h-13.28Z"/>
        <path d="M223.827,99.479c11.44,0,19.761,8.4,19.761,21.521v2.64h-27.521c.72,3.601,4.08,6.881,9.84,6.881,3.44,0,7.28-1.36,9.44-3.28l5.2,7.68c-3.84,3.44-10.24,5.12-16.16,5.12-11.921,0-21.121-7.76-21.121-20.32,0-11.2,8.48-20.241,20.561-20.241ZM215.908,115.639h15.92c-.319-2.72-2.319-6.64-8-6.64-5.359,0-7.439,3.84-7.92,6.64Z"/>
        <path d="M251.186,128.679v-17.52h-6.399v-10.721h6.399v-10.56h12.24v10.56h7.841v10.721h-7.841v14.081c0,2.24,1.28,3.92,3.44,3.92,1.36,0,2.72-.48,3.12-.96l2.4,9.28c-1.521,1.439-4.561,2.56-9.12,2.56-7.841,0-12.081-3.92-12.081-11.36Z"/>
        <path d="M312.034,139.08l-7.279-23.92-7.2,23.92h-13.28l-11.44-38.641h12.64l6.24,23.681,7.601-23.681h10.96l7.601,23.681,6.16-23.681h12.72l-11.44,38.641h-13.28Z"/>
        <path d="M336.535,119.719c0-10.88,7.921-20.241,21.041-20.241,13.28,0,21.12,9.36,21.12,20.241s-7.84,20.32-21.12,20.32c-13.12,0-21.041-9.439-21.041-20.32ZM366.057,119.719c0-5.12-3.04-9.36-8.48-9.36-5.36,0-8.32,4.24-8.32,9.36,0,5.2,2.96,9.44,8.32,9.44,5.44,0,8.48-4.24,8.48-9.44Z"/>
        <path d="M383.903,139.08v-38.641h12.32v4.88c2.561-3.12,7.44-5.84,12.081-5.84v11.92c-.721-.24-1.761-.4-3.04-.4-3.2,0-7.44,1.36-9.041,3.6v24.48h-12.32Z"/>
        <path d="M436.488,139.08l-8.48-13.68-3.68,4.399v9.28h-12.32v-53.361h12.32v30.161l11.76-15.44h14.881l-14.24,17.601,14.96,21.041h-15.2Z"/>
        <path d="M513.368,139.08l-2.721-8.08h-22.16l-2.721,8.08h-14.96l20.08-53.361h17.281l20.16,53.361h-14.96ZM499.527,97.719l-7.44,21.68h14.961l-7.521-21.68Z"/>
        <path d="M533.95,125.639c2.88,2.561,9.04,5.12,13.601,5.12,3.68,0,5.2-1.199,5.2-2.88,0-2-2.641-2.72-6.641-3.36-6.56-1.119-15.84-2.48-15.84-12.32,0-6.8,5.84-12.72,16.56-12.72,6.48,0,12.001,2.08,16.161,5.12l-4.721,8.16c-2.319-2.24-6.72-4.24-11.36-4.24-2.88,0-4.88.96-4.88,2.64,0,1.76,2.08,2.4,6.16,3.12,6.561,1.12,16.32,2.72,16.32,12.961,0,7.359-6.479,12.8-17.601,12.8-6.88,0-14-2.32-18.08-5.92l5.12-8.48Z"/>
        <path d="M571.341,125.639c2.88,2.561,9.04,5.12,13.6,5.12,3.681,0,5.2-1.199,5.2-2.88,0-2-2.64-2.72-6.64-3.36-6.561-1.119-15.841-2.48-15.841-12.32,0-6.8,5.84-12.72,16.561-12.72,6.48,0,12,2.08,16.16,5.12l-4.72,8.16c-2.32-2.24-6.721-4.24-11.36-4.24-2.88,0-4.88.96-4.88,2.64,0,1.76,2.08,2.4,6.16,3.12,6.56,1.12,16.32,2.72,16.32,12.961,0,7.359-6.48,12.8-17.601,12.8-6.88,0-14-2.32-18.08-5.92l5.12-8.48Z"/>
        <path d="M624.964,99.479c11.44,0,19.761,8.4,19.761,21.521v2.64h-27.521c.72,3.601,4.08,6.881,9.84,6.881,3.44,0,7.28-1.36,9.44-3.28l5.2,7.68c-3.84,3.44-10.24,5.12-16.16,5.12-11.921,0-21.121-7.76-21.121-20.32,0-11.2,8.48-20.241,20.561-20.241ZM617.044,115.639h15.92c-.319-2.72-2.319-6.64-8-6.64-5.359,0-7.439,3.84-7.92,6.64Z"/>
        <path d="M698.468,139.08v-23.521c0-2.96-1.439-5.2-5.12-5.2-3.359,0-5.76,2.16-6.96,3.76v24.96h-12.32v-23.521c0-2.96-1.36-5.2-5.12-5.2-3.28,0-5.6,2.16-6.88,3.76v24.96h-12.32v-38.641h12.32v4.72c1.68-2.24,6.64-5.68,12.72-5.68,5.521,0,9.36,2.32,10.961,6.88,2.24-3.36,7.28-6.88,13.36-6.88,7.12,0,11.6,3.68,11.6,11.601v28h-12.24Z"/>
        <path d="M718.404,139.08v-53.361h12.32v19.281c3.04-3.84,7.2-5.521,11.439-5.521,9.601,0,17.041,7.6,17.041,20.241,0,13.12-7.521,20.32-17.041,20.32-4.319,0-8.239-1.76-11.439-5.44v4.48h-12.32ZM730.724,125.719c1.52,2.08,4.72,3.44,7.359,3.44,4.881,0,8.561-3.601,8.561-9.44,0-5.76-3.68-9.36-8.561-9.36-2.64,0-5.84,1.44-7.359,3.52v11.84Z"/>
        <path d="M764.819,139.08v-53.361h12.32v53.361h-12.32Z"/>
        <path d="M786.01,143.16c.88.48,2.08.72,3.04.72,2.8,0,4.56-.56,5.2-2.16l.88-2.08-15.36-39.201h12.96l8.721,24.481,8.8-24.481h13.04l-17.44,44.162c-3.12,8.16-8.96,10-16.32,10.16-1.12,0-4-.24-5.28-.641l1.761-10.96Z"/>
      </g>
      <g>
        <polygon points="119.391 85.24 99.736 139.24 82.71 139.24 102.364 85.24 119.391 85.24"/>
        <polygon points="93.391 85.24 73.736 139.24 56.71 139.24 76.364 85.24 93.391 85.24"/>
      </g>
    </g>
  </g>
</svg>
